# xmcd
#
# Track frame offsets:
# 150
# 39320
# 57332
# 72243
# 93196
# 109408
# 133858
# 153126
# 175284
# 196647
# 219013
# 239608
# 261578
# 281203
# 301071
#
# Disc length: 4305 seconds
#
#
# Revision: 1
# Processed by: cddbd v1.4PL0 Copyright (c) Steve Scherf et al.
# Submitted via: FreeRIP 2.00 
#
DISCID=d410cf0f
DTITLE=黃品源 - 簡單情歌
DYEAR=2002
DGENRE=R&B
TTITLE0=三月小雨
TTITLE1=簡單情歌
TTITLE2=小薇
TTITLE3=雪花
TTITLE4=雨衣
TTITLE5=我親愛的
TTITLE6=笑著讓你走
TTITLE7=禁忌的愛
TTITLE8=多好
TTITLE9=小薇Remix
TTITLE10=老朋友新朋友
TTITLE11=海浪
TTITLE12=很不下心
TTITLE13=那麼愛你為什麼
TTITLE14=你怎麼捨得我難過
EXTD=簡單情歌夜市版
EXTT0=
EXTT1=
EXTT2=
EXTT3=
EXTT4=
EXTT5=
EXTT6=
EXTT7=
EXTT8=
EXTT9=
EXTT10=
EXTT11=
EXTT12=
EXTT13=
EXTT14=
PLAYORDER=
